<?xml version="1.0" encoding="UTF-8" standalone="no"?>
<svg
   xmlns:dc="http://purl.org/dc/elements/1.1/"
   xmlns:cc="http://creativecommons.org/ns#"
   xmlns:rdf="http://www.w3.org/1999/02/22-rdf-syntax-ns#"
   xmlns:svg="http://www.w3.org/2000/svg"
   xmlns="http://www.w3.org/2000/svg"
   xmlns:sodipodi="http://sodipodi.sourceforge.net/DTD/sodipodi-0.dtd"
   xmlns:inkscape="http://www.inkscape.org/namespaces/inkscape"
   width="73.51416mm"
   height="64.396095mm"
   viewBox="0 0 73.514161 64.396094"
   version="1.1"
   id="svg9524"
   inkscape:version="1.0.1 (3bc2e813f5, 2020-09-07)"
   sodipodi:docname="feet.svg">
  <defs
     id="defs9518" />
  <sodipodi:namedview
     id="base"
     pagecolor="#ffffff"
     bordercolor="#666666"
     borderopacity="1.0"
     inkscape:pageopacity="0.0"
     inkscape:pageshadow="2"
     inkscape:zoom="1.4"
     inkscape:cx="18.187106"
     inkscape:cy="164.22236"
     inkscape:document-units="mm"
     inkscape:current-layer="layer1"
     inkscape:document-rotation="0"
     showgrid="false"
     inkscape:window-width="1436"
     inkscape:window-height="1514"
     inkscape:window-x="1432"
     inkscape:window-y="0"
     inkscape:window-maximized="0" />
  <metadata
     id="metadata9521">
    <rdf:RDF>
      <cc:Work
         rdf:about="">
        <dc:format>image/svg+xml</dc:format>
        <dc:type
           rdf:resource="http://purl.org/dc/dcmitype/StillImage" />
        <dc:title></dc:title>
      </cc:Work>
    </rdf:RDF>
  </metadata>
  <g
     inkscape:label="Layer 1"
     inkscape:groupmode="layer"
     id="layer1"
     transform="translate(-270.53705,-367.6428)">
    <g
       id="g9121"
       style="display:inline;stroke:#0000ff;stroke-width:52.0833;stroke-miterlimit:4;stroke-dasharray:none;stroke-opacity:1"
       transform="matrix(0.00254,0,0,0.00254,-98.499249,-472.672)">
      <g
         id="g8990"
         transform="translate(-416.65593,946.95494)"
         style="stroke:#0000ff;stroke-width:52.0833;stroke-miterlimit:4;stroke-dasharray:none;stroke-opacity:1">
        <path
           d="m 171068.92,348124.71 -21782.18,-5.21"
           style="display:inline;fill:none;stroke:#0000ff;stroke-width:52.0833;stroke-miterlimit:4;stroke-dasharray:none;stroke-opacity:1"
           id="path10310-9" />
        <path
           d="m 171068.92,355212.38 -21782.18,-5.21"
           style="display:inline;fill:none;stroke:#0000ff;stroke-width:52.0833;stroke-miterlimit:4;stroke-dasharray:none;stroke-opacity:1"
           id="path10310-9-0" />
        <path
           d="m 149286.74,355207.17 a 3543.85,3543.85 0 1 1 0,-7087.67"
           style="fill:none;stroke:#0000ff;stroke-width:52.0833;stroke-miterlimit:4;stroke-dasharray:none;stroke-opacity:1"
           id="path8972" />
        <path
           d="m 171068.92,355212.38 a 3543.85,3543.85 0 1 0 0,-7087.67"
           style="fill:none;stroke:#0000ff;stroke-width:52.0833;stroke-miterlimit:4;stroke-dasharray:none;stroke-opacity:1"
           id="path8984" />
      </g>
      <path
         d="m 151540.69,352612.89 a 603.95,603.94982 0 1 0 -1207.9,0 603.95,603.94982 0 1 0 1207.9,0 z"
         style="display:inline;fill:none;stroke:#0000ff;stroke-width:52.0833;stroke-miterlimit:4;stroke-dasharray:none;stroke-opacity:1"
         id="path9061" />
      <path
         d="m 160364.36,352612.51 a 603.9,603.89765 0 1 0 -1207.8,0 603.9,603.89765 0 1 0 1207.8,0 z"
         style="display:inline;fill:none;stroke:#0000ff;stroke-width:52.0833;stroke-miterlimit:4;stroke-dasharray:none;stroke-opacity:1"
         id="path9106" />
      <path
         d="m 169189.02,352613.09 a 603.88,603.87571 0 1 0 -1207.76,0 603.88,603.87571 0 1 0 1207.76,0 z"
         style="display:inline;fill:none;stroke:#0000ff;stroke-width:52.0833;stroke-miterlimit:4;stroke-dasharray:none;stroke-opacity:1"
         id="path9111" />
    </g>
    <g
       id="g9288"
       style="display:inline;stroke:#0000ff;stroke-width:52.0833;stroke-miterlimit:4;stroke-dasharray:none;stroke-opacity:1"
       transform="matrix(0.00254,0,0,0.00254,-133.94087,-527.78066)">
      <g
         id="g9271"
         transform="translate(-5845.6461,-434.43344)"
         style="stroke:#0000ff;stroke-width:52.0833;stroke-miterlimit:4;stroke-dasharray:none;stroke-opacity:1">
        <path
           d="m 170529.51,367083.32 a 603.95,603.94982 0 1 0 -1207.9,0 603.95,603.94982 0 1 0 1207.9,0 z"
           style="display:inline;fill:none;stroke:#0000ff;stroke-width:52.0833;stroke-miterlimit:4;stroke-dasharray:none;stroke-opacity:1"
           id="path9061-4" />
        <path
           d="m 179353.18,367082.94 a 603.9,603.89765 0 1 0 -1207.8,0 603.9,603.89765 0 1 0 1207.8,0 z"
           style="display:inline;fill:none;stroke:#0000ff;stroke-width:52.0833;stroke-miterlimit:4;stroke-dasharray:none;stroke-opacity:1"
           id="path9106-4" />
        <path
           d="m 188177.84,367083.52 a 603.88,603.87571 0 1 0 -1207.76,0 603.88,603.87571 0 1 0 1207.76,0 z"
           style="display:inline;fill:none;stroke:#0000ff;stroke-width:52.0833;stroke-miterlimit:4;stroke-dasharray:none;stroke-opacity:1"
           id="path9111-9" />
      </g>
      <g
         id="g9277"
         style="stroke:#0000ff;stroke-width:52.0833;stroke-miterlimit:4;stroke-dasharray:none;stroke-opacity:1">
        <path
           d="m 183205.1,363693.23 -20601.17,-4.93"
           style="display:inline;fill:none;stroke:#0000ff;stroke-width:52.0833;stroke-miterlimit:4;stroke-dasharray:none;stroke-opacity:1"
           id="path10310-9-5" />
        <path
           d="m 162603.93,369604.36 a 2958.0768,2958.0768 0 1 1 0,-5916.06"
           style="fill:none;stroke:#0000ff;stroke-width:52.0833;stroke-miterlimit:4;stroke-dasharray:none;stroke-opacity:1"
           id="path8972-8" />
        <path
           d="m 183205.1,369609.3 a 2965.2369,2958.0474 0 1 0 0,-5916.07"
           style="fill:none;stroke:#0000ff;stroke-width:52.0833;stroke-miterlimit:4;stroke-dasharray:none;stroke-opacity:1"
           id="path8984-0" />
        <path
           d="m 183205.1,369609.3 -20601.17,-4.93"
           style="display:inline;fill:none;stroke:#0000ff;stroke-width:52.0833;stroke-miterlimit:4;stroke-dasharray:none;stroke-opacity:1"
           id="path10310-9-5-5" />
      </g>
    </g>
    <g
       id="g9370"
       style="display:inline;stroke:#0000ff;stroke-width:52.0833;stroke-miterlimit:4;stroke-dasharray:none;stroke-opacity:1"
       transform="matrix(0.00254,0,0,0.00254,-137.30116,-582.22696)">
      <g
         id="g9296"
         transform="translate(-4449.0441,14519.309)"
         style="stroke:#0000ff;stroke-width:52.0833;stroke-miterlimit:4;stroke-dasharray:none;stroke-opacity:1">
        <path
           d="m 170529.51,367083.32 a 603.95,603.94982 0 1 0 -1207.9,0 603.95,603.94982 0 1 0 1207.9,0 z"
           style="display:inline;fill:none;stroke:#0000ff;stroke-width:52.0833;stroke-miterlimit:4;stroke-dasharray:none;stroke-opacity:1"
           id="path9290" />
        <path
           d="m 179353.18,367082.94 a 603.9,603.89765 0 1 0 -1207.8,0 603.9,603.89765 0 1 0 1207.8,0 z"
           style="display:inline;fill:none;stroke:#0000ff;stroke-width:52.0833;stroke-miterlimit:4;stroke-dasharray:none;stroke-opacity:1"
           id="path9292" />
        <path
           d="m 188177.84,367083.52 a 603.88,603.87571 0 1 0 -1207.76,0 603.88,603.87571 0 1 0 1207.76,0 z"
           style="display:inline;fill:none;stroke:#0000ff;stroke-width:52.0833;stroke-miterlimit:4;stroke-dasharray:none;stroke-opacity:1"
           id="path9294" />
      </g>
      <g
         id="g9348"
         style="stroke:#0000ff;stroke-width:52.0833;stroke-miterlimit:4;stroke-dasharray:none;stroke-opacity:1">
        <path
           d="m 184010.72,379230.23 -19420.07,-5.17"
           style="display:inline;fill:none;stroke:#0000ff;stroke-width:52.0833;stroke-miterlimit:4;stroke-dasharray:none;stroke-opacity:1"
           id="path9298" />
        <path
           d="m 164590.65,383974.85 a 2374.9343,2374.9343 0 1 1 0,-4749.79"
           style="fill:none;stroke:#0000ff;stroke-width:52.0833;stroke-miterlimit:4;stroke-dasharray:none;stroke-opacity:1"
           id="path9301" />
        <path
           d="m 164590.65,383974.85 19420.07,5.17"
           style="display:inline;fill:none;stroke:#0000ff;stroke-width:52.0833;stroke-miterlimit:4;stroke-dasharray:none;stroke-opacity:1"
           id="path9334" />
        <path
           d="m 184010.72,379230.23 a 2374.9343,2374.9343 0 1 1 0,4749.79"
           style="fill:none;stroke:#0000ff;stroke-width:52.0833;stroke-miterlimit:4;stroke-dasharray:none;stroke-opacity:1"
           id="path9336" />
      </g>
    </g>
    <g
       id="g9477"
       transform="matrix(0.00254,0,0,0.00254,-226.52755,-607.10584)"
       style="display:inline;stroke:#0000ff;stroke-width:52.0833;stroke-miterlimit:4;stroke-dasharray:none;stroke-opacity:1">
      <g
         id="g9466"
         transform="translate(6946.14,-14157.73)"
         style="stroke:#0000ff;stroke-width:52.0833;stroke-miterlimit:4;stroke-dasharray:none;stroke-opacity:1">
        <path
           d="m 211593.69,399736.3 a 433.935,433.93488 0 1 0 -867.87,0 433.935,433.93488 0 1 0 867.87,0 z"
           style="display:inline;fill:none;stroke:#0000ff;stroke-width:52.0833;stroke-miterlimit:4;stroke-dasharray:none;stroke-opacity:1"
           id="path18572-0-4-0-4-8-6-1-8" />
        <path
           d="m 202769.58,399736.3 a 433.93,433.92988 0 1 0 -867.86,0 433.93,433.92988 0 1 0 867.86,0 z"
           style="display:inline;fill:none;stroke:#0000ff;stroke-width:52.0833;stroke-miterlimit:4;stroke-dasharray:none;stroke-opacity:1"
           id="path18572-0-4-0-4-8-6-8-2" />
        <path
           d="m 193945.49,399736.3 a 433.93,433.92988 0 1 0 -867.86,0 433.93,433.92988 0 1 0 867.86,0 z"
           style="display:inline;fill:none;stroke:#0000ff;stroke-width:52.0833;stroke-miterlimit:4;stroke-dasharray:none;stroke-opacity:1"
           id="path18572-0-4-0-4-8-6-9-0" />
      </g>
      <g
         id="g9461"
         style="stroke:#0000ff;stroke-width:52.0833;stroke-miterlimit:4;stroke-dasharray:none;stroke-opacity:1">
        <path
           d="m 218401.28,383790.23 -18238.96,-4.85"
           style="display:inline;fill:none;stroke:#0000ff;stroke-width:52.0833;stroke-miterlimit:4;stroke-dasharray:none;stroke-opacity:1"
           id="path9423" />
        <path
           d="m 200162.32,387366.91 a 1790.7965,1790.7965 0 1 1 0,-3581.53"
           style="fill:none;stroke:#0000ff;stroke-width:52.0833;stroke-miterlimit:4;stroke-dasharray:none;stroke-opacity:1"
           id="path9425" />
        <path
           d="m 200162.32,387366.91 18238.96,4.85"
           style="display:inline;fill:none;stroke:#0000ff;stroke-width:52.0833;stroke-miterlimit:4;stroke-dasharray:none;stroke-opacity:1"
           id="path9453" />
        <path
           d="m 218401.28,383790.23 a 1790.7965,1790.7965 0 1 1 0,3581.53"
           style="fill:none;stroke:#0000ff;stroke-width:52.0833;stroke-miterlimit:4;stroke-dasharray:none;stroke-opacity:1"
           id="path9455" />
      </g>
    </g>
  </g>
</svg>
