<?xml version="1.0" encoding="UTF-8" standalone="no"?>
<svg
   xmlns:dc="http://purl.org/dc/elements/1.1/"
   xmlns:cc="http://creativecommons.org/ns#"
   xmlns:rdf="http://www.w3.org/1999/02/22-rdf-syntax-ns#"
   xmlns:svg="http://www.w3.org/2000/svg"
   xmlns="http://www.w3.org/2000/svg"
   xmlns:sodipodi="http://sodipodi.sourceforge.net/DTD/sodipodi-0.dtd"
   xmlns:inkscape="http://www.inkscape.org/namespaces/inkscape"
   width="92.33429mm"
   height="138.88431mm"
   viewBox="0 0 92.33429 138.88431"
   version="1.1"
   id="svg9524"
   inkscape:version="1.0.1 (3bc2e813f5, 2020-09-07)"
   sodipodi:docname="top_2_alt.svg">
  <defs
     id="defs9518" />
  <sodipodi:namedview
     id="base"
     pagecolor="#ffffff"
     bordercolor="#666666"
     borderopacity="1.0"
     inkscape:pageopacity="0.0"
     inkscape:pageshadow="2"
     inkscape:zoom="1.4"
     inkscape:cx="302.6296"
     inkscape:cy="325.78423"
     inkscape:document-units="mm"
     inkscape:current-layer="layer1"
     inkscape:document-rotation="0"
     showgrid="false"
     inkscape:window-width="1436"
     inkscape:window-height="1514"
     inkscape:window-x="1432"
     inkscape:window-y="0"
     inkscape:window-maximized="0" />
  <metadata
     id="metadata9521">
    <rdf:RDF>
      <cc:Work
         rdf:about="">
        <dc:format>image/svg+xml</dc:format>
        <dc:type
           rdf:resource="http://purl.org/dc/dcmitype/StillImage" />
        <dc:title></dc:title>
      </cc:Work>
    </rdf:RDF>
  </metadata>
  <g
     inkscape:label="Layer 1"
     inkscape:groupmode="layer"
     id="layer1"
     transform="translate(-195.27831,-324.89622)">
    <g
       id="g9822"
       style="display:inline;stroke:#ff5b28;stroke-opacity:1"
       transform="matrix(0.00254,0,0,0.00254,238.45477,-695.26643)">
      <path
         d="m 16781.412,403240.76 a 603.77325,602.20043 0 1 0 -1207.541,0 603.77325,602.20043 0 1 0 1207.541,0 z"
         style="display:inline;fill:none;stroke:#ff5b28;stroke-width:52.0833;stroke-miterlimit:4;stroke-dasharray:none;stroke-opacity:1"
         id="path18572-0-8-5" />
      <path
         d="m -13212.077,403240.82 a 603.8605,603.86049 0 1 0 -1207.721,0 603.8605,603.86049 0 1 0 1207.721,0 z"
         style="display:inline;fill:none;stroke:#ff5b28;stroke-width:52.1223;stroke-miterlimit:4;stroke-dasharray:none;stroke-opacity:1"
         id="path18572-0-8-8-2" />
      <path
         d="m 16781.547,454712.43 a 603.8545,603.87945 0 1 0 -1207.709,0 603.8545,603.87945 0 1 0 1207.709,0 z"
         style="display:inline;fill:none;stroke:#ff5b28;stroke-width:52.0843;stroke-miterlimit:4;stroke-dasharray:none;stroke-opacity:1"
         id="path18572-0-8-9-3" />
      <path
         d="m -13212.146,454712.27 a 603.85814,603.37977 0 1 0 -1207.716,0 603.85814,603.37977 0 1 0 1207.716,0 z"
         style="display:inline;fill:none;stroke:#ff5b28;stroke-width:52.0833;stroke-miterlimit:4;stroke-dasharray:none;stroke-opacity:1"
         id="path18572-0-8-1-3" />
      <path
         d="m 1784.6972,454712.35 a 603.85468,603.87964 0 1 0 -1207.70902,0 603.85468,603.87964 0 1 0 1207.70902,0 z"
         style="display:inline;fill:none;stroke:#ff5b28;stroke-width:52.0843;stroke-miterlimit:4;stroke-dasharray:none;stroke-opacity:1"
         id="path18572-0-8-9-5-6" />
      <path
         d="m 1784.6972,403241.09 a 603.85468,603.87964 0 1 0 -1207.70902,0 603.85468,603.87964 0 1 0 1207.70902,0 z"
         style="display:inline;fill:none;stroke:#ff5b28;stroke-width:52.0843;stroke-miterlimit:4;stroke-dasharray:none;stroke-opacity:1"
         id="path18572-0-8-9-5-1-4" />
      <path
         style="display:inline;fill:#9955ff;fill-opacity:0;stroke:#ff5b28;stroke-width:52.0833;stroke-linecap:round;stroke-linejoin:miter;stroke-miterlimit:4;stroke-dasharray:none;stroke-opacity:1;paint-order:stroke fill markers"
         d="m 18855.386,453926.7 -166.141,296.85 -188.976,282.67 -210.631,266.93 -230.709,250 -250,230.71 -266.929,210.63 -282.677,188.98 -296.85,166.14 -308.662,142.12 -318.898,117.72 -327.559,92.52 -333.463,66.14 -337.403,40.16 -340.157,13.39 h -27637.795 l -340.157,-13.39 -337.402,-40.16 -333.464,-66.14 -327.559,-92.52 -318.898,-117.72 -308.661,-142.12 -296.851,-166.14 -282.677,-188.98 -266.929,-210.63 -250,-230.71 -230.709,-250 -210.63,-266.93 -188.976,-282.67 -166.142,-296.85 -142.126,-308.67 -117.716,-318.89 -92.52,-327.56 -66.142,-333.47 -40.157,-337.4 -13.386,-339.76 0.394,-45964.96 12.992,-340.16 40.157,-337.4 66.142,-333.47 92.52,-327.56 117.716,-318.89 142.126,-308.67 166.142,-296.85 188.976,-282.67 210.63,-266.93 230.709,-250 250,-230.71 266.929,-210.63 282.677,-188.98 296.851,-166.14 308.661,-142.12 318.898,-117.72 327.559,-92.52 333.464,-66.14 337.402,-40.16 340.157,-13.39 27638.188,0.4 339.764,12.99 337.403,40.16 333.463,66.14 327.559,92.52 318.898,117.72 308.662,142.12 296.85,166.14 282.677,188.98 266.929,210.63 250,230.71 230.709,250 210.631,266.93 188.976,282.67 166.141,296.85 142.126,308.67 117.716,318.89 92.52,327.56 66.142,333.47 40.157,337.4 13.386,340.16 v 45964.96 l -13.386,339.76 -40.157,337.4 -66.142,333.47 -92.52,327.56 -117.716,318.89 z"
         id="path9651-4" />
      <path
         style="display:inline;fill:#9955ff;fill-opacity:0;stroke:#ff5b28;stroke-width:52.0833;stroke-linecap:round;stroke-linejoin:miter;stroke-miterlimit:4;stroke-dasharray:none;stroke-opacity:1;paint-order:stroke fill markers"
         d="m -13822.633,415664.48 v 37081.71 c 0,219.29 176.624,395.92 395.916,395.92 h 29208.781 c 219.292,0 395.712,-176.63 395.712,-395.92 v -37081.71 z"
         id="path9773" />
      <path
         style="display:inline;fill:#9955ff;fill-opacity:0;stroke:#ff5b28;stroke-width:52.0833;stroke-linecap:round;stroke-linejoin:miter;stroke-miterlimit:4;stroke-dasharray:none;stroke-opacity:1;paint-order:stroke fill markers"
         d="m -13426.717,404814.88 c -219.292,0 -395.916,176.62 -395.916,395.9 v 9279.39 h 30000.409 v -9279.39 c 0,-219.28 -176.42,-395.9 -395.712,-395.9 z"
         id="rect69452-6" />
    </g>
  </g>
</svg>
