<?xml version="1.0" encoding="UTF-8" standalone="no"?>
<svg
   xmlns:dc="http://purl.org/dc/elements/1.1/"
   xmlns:cc="http://creativecommons.org/ns#"
   xmlns:rdf="http://www.w3.org/1999/02/22-rdf-syntax-ns#"
   xmlns:svg="http://www.w3.org/2000/svg"
   xmlns="http://www.w3.org/2000/svg"
   xmlns:sodipodi="http://sodipodi.sourceforge.net/DTD/sodipodi-0.dtd"
   xmlns:inkscape="http://www.inkscape.org/namespaces/inkscape"
   width="92.33429mm"
   height="138.88429mm"
   viewBox="0 0 92.33429 138.88429"
   version="1.1"
   id="svg9524"
   inkscape:version="1.0.1 (3bc2e813f5, 2020-09-07)"
   sodipodi:docname="top_1_v1.svg">
  <defs
     id="defs9518" />
  <sodipodi:namedview
     id="base"
     pagecolor="#ffffff"
     bordercolor="#666666"
     borderopacity="1.0"
     inkscape:pageopacity="0.0"
     inkscape:pageshadow="2"
     inkscape:zoom="0.98994949"
     inkscape:cx="151.76802"
     inkscape:cy="4.3495837"
     inkscape:document-units="mm"
     inkscape:current-layer="layer1"
     inkscape:document-rotation="0"
     showgrid="false"
     inkscape:window-width="1436"
     inkscape:window-height="1514"
     inkscape:window-x="1432"
     inkscape:window-y="0"
     inkscape:window-maximized="0" />
  <metadata
     id="metadata9521">
    <rdf:RDF>
      <cc:Work
         rdf:about="">
        <dc:format>image/svg+xml</dc:format>
        <dc:type
           rdf:resource="http://purl.org/dc/dcmitype/StillImage" />
        <dc:title></dc:title>
      </cc:Work>
    </rdf:RDF>
  </metadata>
  <g
     inkscape:label="Layer 1"
     inkscape:groupmode="layer"
     id="layer1"
     transform="translate(-62.689996,-73.432849)">
    <g
       id="g8728"
       style="display:inline"
       transform="matrix(0.00254,0,0,0.00254,205.89979,-789.25136)">
      <polygon
         points="96.898,13.433 97.066,14.28 97.168,15.137 97.202,16.001 97.202,132.752 97.168,133.615 97.066,134.472 96.898,135.319 96.663,136.151 96.364,136.961 96.003,137.745 95.581,138.499 95.101,139.217 94.566,139.895 93.98,140.53 93.345,141.116 92.667,141.651 91.949,142.131 91.195,142.553 90.411,142.914 89.601,143.213 88.769,143.448 87.922,143.616 87.065,143.718 86.201,143.752 16.001,143.752 15.137,143.718 14.28,143.616 13.433,143.448 12.601,143.213 11.791,142.914 11.007,142.553 10.253,142.131 9.535,141.651 8.857,141.116 8.222,140.53 7.636,139.895 7.101,139.217 6.621,138.499 6.199,137.745 5.838,136.961 5.539,136.151 5.304,135.319 5.136,134.472 5.034,133.615 5,132.752 5.001,16.001 5.034,15.137 5.136,14.28 5.304,13.433 5.539,12.601 5.838,11.791 6.199,11.007 6.621,10.253 7.101,9.535 7.636,8.857 8.222,8.222 8.857,7.636 9.535,7.101 10.253,6.621 11.007,6.199 11.791,5.838 12.601,5.539 13.433,5.304 14.28,5.136 15.137,5.034 16.001,5 86.202,5.001 87.065,5.034 87.922,5.136 88.769,5.304 89.601,5.539 90.411,5.838 91.195,6.199 91.949,6.621 92.667,7.101 93.345,7.636 93.98,8.222 94.566,8.857 95.101,9.535 95.581,10.253 96.003,11.007 96.364,11.791 96.663,12.601 "
         style="fill:none;stroke:#0000ff;stroke-width:0.132292;stroke-miterlimit:4;stroke-dasharray:none;stroke-opacity:1"
         id="polygon61086"
         transform="matrix(393.70079,0,0,393.70079,-58324.271,337696.99)" />
      <path
         d="m -22772.601,341241.08 a 433.92851,433.92834 0 1 0 -867.857,0 433.92851,433.92834 0 1 0 867.857,0 z"
         style="fill:none;stroke:#0000ff;stroke-width:52.0833;stroke-miterlimit:4;stroke-dasharray:none;stroke-opacity:1"
         id="path18572-0" />
      <path
         d="m -52765.681,341240.96 a 433.9285,433.92834 0 1 0 -867.857,0 433.9285,433.92834 0 1 0 867.857,0 z"
         style="fill:none;stroke:#0000ff;stroke-width:52.0833;stroke-miterlimit:4;stroke-dasharray:none;stroke-opacity:1"
         id="path18572-0-4" />
      <path
         d="m -52765.633,392713.01 a 433.9285,433.92834 0 1 0 -867.857,0 433.9285,433.92834 0 1 0 867.857,0 z"
         style="fill:none;stroke:#0000ff;stroke-width:52.0833;stroke-miterlimit:4;stroke-dasharray:none;stroke-opacity:1"
         id="path18572-0-4-0" />
      <path
         d="m -22772.72,392713.01 a 433.9285,433.92834 0 1 0 -867.857,0 433.9285,433.92834 0 1 0 867.857,0 z"
         style="fill:none;stroke:#0000ff;stroke-width:52.0833;stroke-miterlimit:4;stroke-dasharray:none;stroke-opacity:1"
         id="path18572-0-4-0-9" />
      <path
         d="m -37769.065,392713.09 a 433.9285,433.92835 0 1 0 -867.857,0 433.9285,433.92835 0 1 0 867.857,0 z"
         style="display:inline;fill:none;stroke:#0000ff;stroke-width:52.0833;stroke-miterlimit:4;stroke-dasharray:none;stroke-opacity:1"
         id="path18572-0-4-0-4" />
      <path
         d="m -37769.065,341241.04 a 433.9285,433.92836 0 1 0 -867.857,0 433.9285,433.92836 0 1 0 867.857,0 z"
         style="display:inline;fill:none;stroke:#0000ff;stroke-width:52.0833;stroke-miterlimit:4;stroke-dasharray:none;stroke-opacity:1"
         id="path18572-0-4-0-4-8" />
      <rect
         style="fill:#9955ff;fill-opacity:0;stroke:#0000ff;stroke-width:52.0833;stroke-linecap:round;stroke-linejoin:miter;stroke-miterlimit:4;stroke-dasharray:none;stroke-opacity:1;paint-order:stroke fill markers"
         id="rect69472"
         width="30001.184"
         height="37501.184"
         x="-53206.559"
         y="353641.5"
         rx="395.83331"
         ry="395.83331" />
    </g>
  </g>
</svg>
